<svg width="16" height="16" viewBox="0 0 16 16" fill="none" xmlns="http://www.w3.org/2000/svg">
<g clip-path="url(#clip0_1727_489)">
<path d="M12.2369 2.85754C11.7168 2.85754 11.3008 3.27812 11.3008 3.79367C11.3008 4.30921 11.7214 4.72979 12.2369 4.72979C12.7524 4.72979 13.173 4.30921 13.173 3.79367C13.173 3.27812 12.7524 2.85754 12.2369 2.85754Z" fill="#666666"/>
<path d="M8.06785 4.06067C5.89714 4.06067 4.12891 5.8289 4.12891 7.99962C4.12891 10.1703 5.89714 11.9386 8.06785 11.9386C10.2386 11.9386 12.0068 10.1703 12.0068 7.99962C12.0068 5.8289 10.2386 4.06067 8.06785 4.06067ZM8.06785 10.5231C6.67498 10.5231 5.5444 9.39249 5.5444 7.99962C5.5444 6.60674 6.67498 5.47616 8.06785 5.47616C9.46073 5.47616 10.5913 6.60674 10.5913 7.99962C10.5913 9.39249 9.46073 10.5231 8.06785 10.5231Z" fill="#666666"/>
<path d="M11.1928 16.0001H4.80724C2.15715 16.0001 0 13.843 0 11.1929V4.80736C0 2.15727 2.15715 0.00012207 4.80724 0.00012207H11.1973C13.8474 0.00012207 16.0045 2.15727 16.0045 4.80736V11.1974C16.0045 13.8475 13.8474 16.0046 11.1973 16.0046L11.1928 16.0001ZM4.80724 1.50606C2.98926 1.50606 1.50594 2.98486 1.50594 4.80736V11.1974C1.50594 13.0154 2.98474 14.4987 4.80724 14.4987H11.1973C13.0153 14.4987 14.4986 13.0199 14.4986 11.1974V4.80736C14.4986 2.98938 13.0198 1.50606 11.1973 1.50606H4.80724Z" fill="#666666"/>
</g>
<defs>
<clipPath id="clip0_1727_489">
<rect width="16" height="16" fill="white"/>
</clipPath>
</defs>
</svg>
